<svg xmlns="http://www.w3.org/2000/svg" viewBox="0 0 68.4 68.4" enable-background="new 0 0 68.4 68.4"><circle fill="none" stroke="#231F20" stroke-width="3" stroke-miterlimit="10" cx="34.2" cy="33.3" r="31.2"/><path fill-rule="evenodd" clip-rule="evenodd" fill="#231F20" d="M23.1 18.2h22.3c2.1 0 3.8 1.7 3.8 3.8v22.3c0 2.1-1.7 3.9-3.8 3.9H23.1c-2.1 0-3.9-1.7-3.9-3.9V22.1c0-2.1 1.7-3.9 3.9-3.9zm18 3.4c-.7 0-1.4.6-1.4 1.4v3.2c0 .7.6 1.4 1.4 1.4h3.4c.7 0 1.4-.6 1.4-1.4V23c0-.7-.6-1.4-1.4-1.4h-3.4zm4.7 9.3h-2.6c.2.8.4 1.7.4 2.6 0 5-4.2 9-9.3 9-5.2 0-9.3-4-9.3-9 0-.9.1-1.8.4-2.6h-2.8v12.7c0 .7.5 1.2 1.2 1.2h20.9c.7 0 1.2-.5 1.2-1.2V30.9zm-11.6-3.6c-3.3 0-6 2.6-6 5.8 0 3.2 2.7 5.8 6 5.8s6-2.6 6-5.8c.1-3.1-2.6-5.8-6-5.8z"/></svg>